<?xml version="1.0" encoding="iso-8859-1"?>
<!-- Generator: Adobe Illustrator 19.0.0, SVG Export Plug-In . SVG Version: 6.00 Build 0)  -->
<svg version="1.1" id="Layer_1" xmlns="http://www.w3.org/2000/svg" xmlns:xlink="http://www.w3.org/1999/xlink" x="0px" y="0px"
	 viewBox="0 0 511.997 511.997" style="enable-background:new 0 0 511.997 511.997;" xml:space="preserve">
<circle style="fill:#FFC843;" cx="255.998" cy="255.998" r="255.998"/>
<circle style="fill:#D49000;" cx="255.998" cy="255.998" r="207.745"/>
<path style="fill:#FFC843;" d="M259.203,102.361c10.266,0,18.408,8.142,18.408,18.408v4.956c19.117,2.832,36.108,8.496,51.33,16.993
	c6.726,3.893,12.745,10.62,12.745,21.241c0,13.452-10.621,23.718-24.073,23.718c-4.247,0-8.496-1.062-12.39-3.186
	c-9.912-5.31-19.825-9.558-29.383-12.036v53.81c53.809,14.513,76.82,36.462,76.82,76.111s-30.444,65.137-75.05,70.092v18.762
	c0,10.266-8.142,18.409-18.408,18.409c-10.266,0-18.408-8.143-18.408-18.409v-19.116c-25.134-3.186-48.854-12.036-69.74-24.781
	c-7.434-4.601-12.036-11.681-12.036-21.24c0-13.806,10.621-24.073,24.427-24.073c4.602,0,9.558,1.77,13.807,4.602
	c14.868,9.558,29.029,16.285,45.313,19.825v-56.288c-50.978-13.806-76.112-33.276-76.112-75.403
	c0-38.941,29.737-65.137,74.342-69.74v-4.248C240.795,110.503,248.937,102.361,259.203,102.361z M242.566,217.059v-47.791
	c-16.993,2.479-24.427,10.975-24.427,22.303C218.139,202.545,223.095,209.979,242.566,217.059z M275.842,279.011v49.207
	c16.639-2.478,25.134-10.266,25.134-23.011C300.977,293.525,294.959,285.736,275.842,279.011z"/>
<g>
</g>
<g>
</g>
<g>
</g>
<g>
</g>
<g>
</g>
<g>
</g>
<g>
</g>
<g>
</g>
<g>
</g>
<g>
</g>
<g>
</g>
<g>
</g>
<g>
</g>
<g>
</g>
<g>
</g>
</svg>
